<svg width="27" height="26" viewBox="0 0 27 26" fill="none" xmlns="http://www.w3.org/2000/svg">
<path d="M25.6013 7.33366C25.2013 7.86699 24.668 8.26699 24.668 8.66699C24.668 9.06699 25.068 9.46699 25.468 10.0003C26.1346 10.667 26.8013 11.2003 26.668 11.867C26.668 12.5337 26.0013 13.2003 25.3346 13.867L19.868 19.3337L18.0013 17.6003L23.6013 12.0003L22.268 10.667L20.4013 12.5337L15.3346 7.46699L20.668 2.40033C21.2013 1.86699 22.0013 1.86699 22.5346 2.40033L25.6013 5.46699C26.1346 6.00033 26.1346 6.93366 25.6013 7.33366ZM2.0013 20.9337L14.8013 8.13366L19.7346 13.2003L7.06797 26.0003H2.0013V20.9337ZM7.33464 0.666992V4.66699H11.3346V7.33366H7.33464V11.3337H4.66797V7.33366H0.667969V4.66699H4.66797V0.666992H7.33464Z" fill="currentColor"/>
</svg>
