<svg width="33" height="32" viewBox="0 0 33 32" fill="none" xmlns="http://www.w3.org/2000/svg">
<path d="M32.5 8C32.5 8 32.5 6 30.5 4C28.5 2 26.7 2 26.7 2L24.5 4.2V0H0.5V32H24.5V16L32.5 8ZM12.5 22.2L11.9 21.6L12.5 19.4L14.3 21.525L12.5 22.2ZM14.9 19L13.7 17.8L23.6278 7.88128C24.0278 8.08128 24.4278 8.48128 24.8278 8.88128L14.9 19ZM28.7 5L26.9 7C26.5 6.6 26.1 6.4 25.7 6L27.5 4.2C27.7 4.4 28.1 4.6 28.7 5ZM21.5 29H3.5V3H21.5V7L10.7 18L8.5 26.2L16.7 24L21.5 18.4375V29Z" fill="currentColor"/>
</svg>
