<svg width="27" height="26" viewBox="0 0 27 26" fill="none" xmlns="http://www.w3.org/2000/svg">
<path d="M25.6013 7.33317C25.2013 7.8665 24.668 8.2665 24.668 8.6665C24.668 9.0665 25.068 9.4665 25.468 9.99984C26.1346 10.6665 26.8013 11.1998 26.668 11.8665C26.668 12.5332 26.0013 13.1998 25.3346 13.8665L19.868 19.3332L18.0013 17.5998L23.6013 11.9998L22.268 10.6665L20.4013 12.5332L15.3346 7.4665L20.668 2.39984C21.2013 1.8665 22.0013 1.8665 22.5346 2.39984L25.6013 5.4665C26.1346 5.99984 26.1346 6.93317 25.6013 7.33317ZM2.0013 20.9332L14.8013 8.13317L19.7346 13.1998L7.06797 25.9998H2.0013V20.9332ZM7.33464 0.666504V4.6665H11.3346V7.33317H7.33464V11.3332H4.66797V7.33317H0.667969V4.6665H4.66797V0.666504H7.33464Z" fill="#111827"/>
</svg>
