<svg width="32" height="32" viewBox="0 0 32 32" fill="none" xmlns="http://www.w3.org/2000/svg">
<path d="M16.384 0C21.416 0 26.0752 2.232 29.1648 5.9904C29.2528 6.09694 29.3185 6.22009 29.358 6.35253C29.3974 6.48497 29.4098 6.624 29.3944 6.76133C29.3791 6.89867 29.3362 7.03151 29.2685 7.15195C29.2007 7.27239 29.1094 7.37797 29 7.4624C28.7773 7.63696 28.4953 7.71789 28.214 7.68802C27.9326 7.65815 27.6739 7.51983 27.4928 7.3024C26.1419 5.66587 24.4445 4.34966 22.5232 3.44876C20.6018 2.54785 18.5045 2.08472 16.3824 2.0928C8.5184 2.0928 2.1424 8.32 2.1424 16C2.1424 23.68 8.5184 29.9072 16.3824 29.9072C18.5351 29.9157 20.662 29.4392 22.6053 28.5133C24.5487 27.5873 26.2585 26.2356 27.608 24.5584C27.786 24.3387 28.0426 24.197 28.3234 24.1633C28.6041 24.1295 28.887 24.2064 29.112 24.3776C29.2224 24.4606 29.3149 24.5649 29.3841 24.6844C29.4534 24.8039 29.4979 24.936 29.5151 25.073C29.5322 25.21 29.5217 25.3491 29.4841 25.482C29.4464 25.6148 29.3825 25.7387 29.296 25.8464C26.2112 29.7024 21.4896 32 16.384 32C7.3328 32 0 24.8368 0 16C0 7.1632 7.3344 0 16.384 0ZM27.3568 11.456L31.6864 15.7872C32.1056 16.2048 32.1136 16.8752 31.7056 17.2848L27.4752 21.5136C27.376 21.6112 27.2585 21.6883 27.1294 21.7404C27.0003 21.7925 26.8622 21.8185 26.7231 21.817C26.5839 21.8155 26.4464 21.7865 26.3184 21.7317C26.1905 21.6769 26.0747 21.5973 25.9776 21.4976C25.8775 21.4006 25.7976 21.2848 25.7425 21.1567C25.6874 21.0287 25.6582 20.891 25.6566 20.7517C25.6549 20.6123 25.6809 20.474 25.733 20.3447C25.7851 20.2154 25.8622 20.0977 25.96 19.9984L28.4352 17.5232H11.9392C11.8 17.5253 11.6617 17.4999 11.5324 17.4484C11.403 17.3968 11.2852 17.3202 11.1855 17.223C11.0859 17.1257 11.0065 17.0097 10.9518 16.8817C10.8972 16.7536 10.8684 16.616 10.8672 16.4768C10.8672 15.8976 11.3472 15.4288 11.9392 15.4288H28.3696L25.8768 12.936C25.7769 12.839 25.6973 12.7233 25.6423 12.5954C25.5873 12.4675 25.5582 12.33 25.5566 12.1909C25.5549 12.0517 25.5808 11.9136 25.6328 11.7844C25.6847 11.6553 25.7617 11.5377 25.8592 11.4384C25.9585 11.3409 26.0761 11.2639 26.2052 11.212C26.3344 11.16 26.4725 11.1341 26.6117 11.1358C26.7508 11.1374 26.8883 11.1665 27.0162 11.2215C27.1441 11.2765 27.2598 11.3561 27.3568 11.456Z" fill="white"/>
</svg>
