<svg width="20" height="21" viewBox="0 0 20 21" fill="none" xmlns="http://www.w3.org/2000/svg">
<path d="M2.35635 6.03757C2.19318 5.65685 1.75228 5.48048 1.37155 5.64365C0.99083 5.80682 0.814467 6.24772 0.977633 6.62845L1.66699 6.33301L2.35635 6.03757ZM12.9896 11.6069L12.715 10.909L12.9896 11.6069ZM7.63964 12.016C7.86555 11.6688 7.76723 11.2042 7.42004 10.9783C7.07285 10.7524 6.60827 10.8507 6.38236 11.1979L7.011 11.6069L7.63964 12.016ZM5.20502 13.0073C4.97911 13.3545 5.07743 13.8191 5.42462 14.045C5.77181 14.2709 6.23639 14.1726 6.4623 13.8254L5.83366 13.4163L5.20502 13.0073ZM19.023 6.62845C19.1862 6.24772 19.0098 5.80682 18.6291 5.64365C18.2484 5.48048 17.8075 5.65685 17.6443 6.03757L18.3337 6.33301L19.023 6.62845ZM15.8337 9.77371L15.3204 9.22686V9.22686L15.8337 9.77371ZM16.5533 11.554C16.8462 11.8469 17.3211 11.8469 17.614 11.554C17.9069 11.2611 17.9069 10.7863 17.614 10.4934L17.0837 11.0237L16.5533 11.554ZM9.25033 14.2497C9.25033 14.6639 9.58611 14.9997 10.0003 14.9997C10.4145 14.9997 10.7503 14.6639 10.7503 14.2497H10.0003H9.25033ZM13.5384 13.8254C13.7643 14.1726 14.2288 14.2709 14.576 14.045C14.9232 13.8191 15.0215 13.3545 14.7956 13.0073L14.167 13.4163L13.5384 13.8254ZM4.69732 10.304C4.99022 10.0111 4.99022 9.53627 4.69732 9.24338C4.40443 8.95048 3.92956 8.95048 3.63666 9.24338L4.16699 9.77371L4.69732 10.304ZM2.38666 10.4934C2.09377 10.7863 2.09377 11.2611 2.38666 11.554C2.67956 11.8469 3.15443 11.8469 3.44732 11.554L2.91699 11.0237L2.38666 10.4934ZM10.0003 12.1663V11.4163C7.35977 11.4163 5.46165 10.1026 4.19575 8.73934C3.56303 8.05794 3.09878 7.37418 2.79323 6.86085C2.64088 6.6049 2.52915 6.39329 2.45663 6.24825C2.4204 6.17578 2.39404 6.12011 2.37737 6.08402C2.36904 6.06598 2.36313 6.05285 2.35964 6.04499C2.35789 6.04106 2.35674 6.03845 2.35619 6.03719C2.35592 6.03657 2.3558 6.03628 2.35582 6.03634C2.35584 6.03637 2.35589 6.03649 2.35598 6.03669C2.35602 6.0368 2.35611 6.03701 2.35614 6.03707C2.35624 6.03731 2.35635 6.03757 1.66699 6.33301C0.977633 6.62845 0.977765 6.62875 0.977906 6.62908C0.977966 6.62922 0.978118 6.62958 0.978238 6.62985C0.978478 6.63041 0.978758 6.63106 0.979077 6.6318C0.979714 6.63327 0.980508 6.6351 0.981458 6.63728C0.983359 6.64163 0.985888 6.64739 0.989048 6.65449C0.995368 6.6687 1.00422 6.68833 1.01562 6.71302C1.03842 6.76238 1.07147 6.83203 1.11499 6.91907C1.20197 7.09304 1.33113 7.33716 1.50429 7.62808C1.84978 8.2085 2.37512 8.98308 3.09656 9.76001C4.539 11.3134 6.80755 12.9163 10.0003 12.9163V12.1663ZM12.9896 11.6069L12.715 10.909C11.9202 11.2219 11.0187 11.4163 10.0003 11.4163V12.1663V12.9163C11.2152 12.9163 12.3027 12.6833 13.2643 12.3048L12.9896 11.6069ZM7.011 11.6069L6.38236 11.1979L5.20502 13.0073L5.83366 13.4163L6.4623 13.8254L7.63964 12.016L7.011 11.6069ZM18.3337 6.33301C17.6443 6.03757 17.6444 6.03742 17.6444 6.03727C17.6444 6.03723 17.6445 6.03709 17.6445 6.03701C17.6446 6.03686 17.6447 6.03673 17.6447 6.03662C17.6448 6.03642 17.6448 6.03632 17.6448 6.03634C17.6448 6.03636 17.6446 6.03682 17.6442 6.03771C17.6435 6.03948 17.6419 6.04295 17.6396 6.04806C17.6351 6.05828 17.6275 6.07506 17.6168 6.09789C17.5955 6.14358 17.5621 6.2134 17.5161 6.30344C17.4242 6.48369 17.283 6.7439 17.0904 7.05291C16.704 7.67308 16.1184 8.47785 15.3204 9.22686L15.8337 9.77371L16.3469 10.3206C17.2644 9.45937 17.9288 8.54379 18.3635 7.84617C18.5815 7.49627 18.7436 7.19822 18.8524 6.98493C18.9068 6.8782 18.948 6.79243 18.9764 6.73172C18.9905 6.70136 19.0014 6.67723 19.0092 6.65986C19.0131 6.65117 19.0162 6.64417 19.0185 6.63891C19.0196 6.63628 19.0206 6.63409 19.0213 6.63235C19.0217 6.63147 19.022 6.63071 19.0223 6.63006C19.0225 6.62973 19.0226 6.62944 19.0227 6.62917C19.0228 6.62903 19.0228 6.62885 19.0229 6.62879C19.0229 6.62861 19.023 6.62845 18.3337 6.33301ZM15.8337 9.77371L15.3204 9.22686C14.6135 9.89032 13.7484 10.5023 12.715 10.909L12.9896 11.6069L13.2643 12.3048C14.51 11.8145 15.5324 11.0851 16.3469 10.3206L15.8337 9.77371ZM15.8337 9.77371L15.3033 10.304L16.5533 11.554L17.0837 11.0237L17.614 10.4934L16.364 9.24338L15.8337 9.77371ZM10.0003 12.1663H9.25033V14.2497H10.0003H10.7503V12.1663H10.0003ZM12.9896 11.6069L12.361 12.016L13.5384 13.8254L14.167 13.4163L14.7956 13.0073L13.6183 11.1979L12.9896 11.6069ZM4.16699 9.77371L3.63666 9.24338L2.38666 10.4934L2.91699 11.0237L3.44732 11.554L4.69732 10.304L4.16699 9.77371Z" fill="#4C4C4C"/>
</svg>
