<svg width="20" height="21" viewBox="0 0 20 21" fill="none" xmlns="http://www.w3.org/2000/svg">
<path d="M2.7294 13.2461C2.02113 12.3259 1.66699 11.8658 1.66699 10.4997C1.66699 9.13353 2.02113 8.67345 2.7294 7.75328C4.14363 5.91597 6.51542 3.83301 10.0003 3.83301C13.4852 3.83301 15.857 5.91597 17.2712 7.75328C17.9795 8.67345 18.3337 9.13353 18.3337 10.4997C18.3337 11.8658 17.9795 12.3259 17.2712 13.2461C15.857 15.0834 13.4852 17.1663 10.0003 17.1663C6.51542 17.1663 4.14363 15.0834 2.7294 13.2461Z" stroke="#4C4C4C" stroke-width="1.5"/>
<path d="M12.5 10.499C12.5 11.8797 11.3807 12.999 10 12.999C8.61929 12.999 7.5 11.8797 7.5 10.499C7.5 9.11831 8.61929 7.99902 10 7.99902C11.3807 7.99902 12.5 9.11831 12.5 10.499Z" stroke="#4C4C4C" stroke-width="1.5"/>
</svg>
